<?xml version="1.0" standalone="no"?>
<!DOCTYPE svg PUBLIC "-//W3C//DTD SVG 20010904//EN"
 "http://www.w3.org/TR/2001/REC-SVG-20010904/DTD/svg10.dtd">
<svg version="1.0" xmlns="http://www.w3.org/2000/svg"
 width="512.000000pt" height="512.000000pt" viewBox="0 0 512.000000 512.000000"
 preserveAspectRatio="xMidYMid meet">

<g transform="translate(0.000000,512.000000) scale(0.100000,-0.100000)"
fill="#000000" stroke="none">
<path d="M1796 4763 c-41 -49 -232 -277 -425 -508 -373 -447 -371 -444 -335
-503 24 -41 828 -632 867 -639 23 -3 39 1 57 15 14 11 142 178 284 371 143
193 262 351 265 351 7 0 254 -440 249 -445 -1 -1 -40 -21 -85 -44 -88 -43
-113 -69 -113 -114 0 -60 11 -64 513 -186 280 -68 476 -111 490 -107 12 3 30
12 39 19 16 13 466 724 502 796 20 38 15 72 -14 101 -27 27 -66 25 -155 -9
l-75 -29 -14 26 c-7 15 -107 234 -221 487 -114 253 -216 470 -228 483 l-20 22
-754 0 -753 0 -74 -87z m1711 -578 c124 -275 232 -508 241 -518 8 -9 27 -21
42 -25 l27 -7 -156 -253 c-154 -250 -156 -252 -186 -247 -16 3 -152 35 -302
71 l-272 66 36 34 c31 29 35 38 30 67 -3 19 -78 164 -168 323 -148 264 -539
982 -539 991 0 2 230 2 511 1 l511 -3 225 -500z m-1260 170 c95 -176 172 -326
173 -333 0 -18 -520 -698 -532 -694 -5 1 -155 111 -334 243 -284 212 -323 244
-312 258 7 9 170 204 362 434 l348 418 61 -3 61 -3 173 -320z"/>
<path d="M4030 2862 c-245 -137 -455 -255 -468 -263 -12 -8 -27 -29 -32 -48
-11 -41 -24 -14 234 -480 108 -195 195 -355 194 -356 -3 -3 -483 -45 -505 -45
-10 0 -13 26 -13 96 0 52 -5 104 -11 116 -15 28 -72 50 -101 39 -32 -12 -33
-14 -347 -416 -247 -316 -281 -364 -281 -395 0 -29 41 -97 256 -415 140 -209
267 -390 280 -402 30 -28 74 -29 104 -5 24 19 38 79 39 164 l1 48 550 2 c538
3 550 3 570 23 33 33 613 1324 614 1365 0 45 -541 1163 -580 1198 -14 12 -33
22 -42 22 -9 0 -217 -112 -462 -248z m671 -472 l247 -505 -24 -48 c-14 -26
-30 -50 -37 -52 -29 -9 -741 -55 -747 -48 -10 12 -410 744 -413 755 -2 11 703
410 717 405 5 -2 120 -230 257 -507z m-1402 -867 c6 -13 24 -26 38 -29 15 -4
214 9 443 29 473 42 1029 82 1036 74 3 -2 -89 -212 -203 -465 l-208 -461 -553
-1 c-583 0 -595 -1 -619 -45 -7 -11 -52 49 -176 234 l-168 249 193 247 c180
231 193 245 199 219 3 -16 11 -39 18 -51z"/>
<path d="M885 3064 c-171 -7 -336 -13 -368 -13 -69 -1 -107 -30 -107 -81 0
-46 11 -61 88 -114 l70 -48 -107 -177 c-389 -637 -461 -760 -461 -784 0 -18
53 -104 154 -254 85 -125 277 -410 427 -633 150 -223 283 -417 297 -433 l26
-27 661 0 662 0 24 26 24 26 3 502 c1 312 -1 513 -7 529 -21 55 -23 55 -506
77 -247 11 -450 22 -452 24 -3 3 212 443 222 454 2 2 39 -17 82 -42 43 -24 89
-47 103 -51 33 -7 87 26 96 60 9 36 -329 939 -360 960 -25 18 -119 18 -571 -1z
m575 -436 c57 -156 106 -289 108 -295 3 -10 -6 -9 -32 2 -70 29 -80 17 -227
-278 -147 -295 -541 -1047 -549 -1047 -3 0 -132 189 -288 420 l-284 420 293
473 c291 471 307 501 285 548 -6 15 16 17 216 26 123 5 257 10 298 11 l76 2
104 -282z m205 -1138 c138 -5 292 -13 343 -16 l92 -6 0 -399 0 -399 -560 0
-560 0 -55 84 -54 83 176 338 176 337 96 -6 c53 -3 209 -10 346 -16z"/>
</g>
</svg>
